<mxfile host="app.diagrams.net" agent="Mozilla/5.0 (Macintosh; Intel Mac OS X 10_15_7) AppleWebKit/537.36 (KHTML, like Gecko) Chrome/135.0.0.0 Safari/537.36" version="26.2.14">
  <diagram name="Page-1" id="8psTu5joOEkHxSPbt8DS">
    <mxGraphModel dx="3153" dy="3122" grid="1" gridSize="10" guides="1" tooltips="1" connect="1" arrows="1" fold="1" page="1" pageScale="1" pageWidth="827" pageHeight="1169" math="0" shadow="0">
      <root>
        <mxCell id="0" />
        <mxCell id="1" parent="0" />
        <mxCell id="5wcGb58u3SQSDJ49Bvyi-14" value="" style="edgeStyle=orthogonalEdgeStyle;rounded=0;orthogonalLoop=1;jettySize=auto;html=1;strokeWidth=3;entryX=0;entryY=0.5;entryDx=0;entryDy=0;" parent="1" target="5wcGb58u3SQSDJ49Bvyi-4" edge="1">
          <mxGeometry relative="1" as="geometry">
            <mxPoint x="280" y="124.33" as="targetPoint" />
            <mxPoint x="240" y="124.57999999999954" as="sourcePoint" />
          </mxGeometry>
        </mxCell>
        <mxCell id="5wcGb58u3SQSDJ49Bvyi-1" value="&lt;font style=&quot;font-size: 18px;&quot;&gt;AXI STREAM&lt;/font&gt;&lt;div&gt;&lt;font size=&quot;3&quot;&gt;Interface&lt;/font&gt;&lt;/div&gt;&lt;div&gt;&lt;font size=&quot;3&quot;&gt;(Slave)&lt;/font&gt;&lt;/div&gt;" style="rounded=0;whiteSpace=wrap;html=1;" parent="1" vertex="1">
          <mxGeometry x="160" y="62" width="80" height="137.5" as="geometry" />
        </mxCell>
        <mxCell id="5wcGb58u3SQSDJ49Bvyi-13" value="" style="edgeStyle=orthogonalEdgeStyle;rounded=0;orthogonalLoop=1;jettySize=auto;html=1;strokeWidth=3;" parent="1" edge="1">
          <mxGeometry relative="1" as="geometry">
            <mxPoint x="718" y="131" as="targetPoint" />
            <mxPoint x="408" y="131" as="sourcePoint" />
          </mxGeometry>
        </mxCell>
        <mxCell id="5wcGb58u3SQSDJ49Bvyi-4" value="&lt;font style=&quot;font-size: 18px;&quot;&gt;Grayscale conversion&lt;/font&gt;" style="whiteSpace=wrap;html=1;" parent="1" vertex="1">
          <mxGeometry x="294" y="72.5" width="120" height="105" as="geometry" />
        </mxCell>
        <mxCell id="5wcGb58u3SQSDJ49Bvyi-6" value="&lt;span style=&quot;font-size: 18px;&quot;&gt;Background&lt;/span&gt;&lt;br&gt;&lt;div&gt;&lt;font size=&quot;3&quot;&gt;&amp;nbsp;Buffer&lt;/font&gt;&lt;/div&gt;" style="rounded=0;whiteSpace=wrap;html=1;" parent="1" vertex="1">
          <mxGeometry x="736" y="-253" width="120" height="100" as="geometry" />
        </mxCell>
        <mxCell id="5wcGb58u3SQSDJ49Bvyi-7" value="&lt;span style=&quot;background-color: transparent; color: light-dark(rgb(0, 0, 0), rgb(255, 255, 255)); font-size: 18px;&quot;&gt;Variation&lt;/span&gt;&lt;div&gt;&lt;span style=&quot;font-size: medium; background-color: transparent; color: light-dark(rgb(0, 0, 0), rgb(255, 255, 255));&quot;&gt;&amp;nbsp;Buffer&lt;/span&gt;&lt;/div&gt;" style="rounded=0;whiteSpace=wrap;html=1;" parent="1" vertex="1">
          <mxGeometry x="736" y="-137" width="120" height="100" as="geometry" />
        </mxCell>
        <mxCell id="5wcGb58u3SQSDJ49Bvyi-8" value="&lt;font style=&quot;font-size: 24px;&quot;&gt;AXI MEM (Master)&lt;/font&gt;" style="whiteSpace=wrap;html=1;" parent="1" vertex="1">
          <mxGeometry x="150" y="-352" width="1664" height="60" as="geometry" />
        </mxCell>
        <mxCell id="5wcGb58u3SQSDJ49Bvyi-26" value="" style="edgeStyle=orthogonalEdgeStyle;rounded=0;orthogonalLoop=1;jettySize=auto;html=1;strokeWidth=3;" parent="1" edge="1">
          <mxGeometry relative="1" as="geometry">
            <mxPoint x="1100" y="47.28" as="targetPoint" />
            <mxPoint x="1010" y="47.280000000000456" as="sourcePoint" />
            <Array as="points">
              <mxPoint x="1059" y="47.28" />
            </Array>
          </mxGeometry>
        </mxCell>
        <mxCell id="5wcGb58u3SQSDJ49Bvyi-16" value="&lt;font style=&quot;font-size: 18px;&quot;&gt;Motion Detection&lt;/font&gt;" style="whiteSpace=wrap;html=1;" parent="1" vertex="1">
          <mxGeometry x="920" y="-242.5" width="91" height="580" as="geometry" />
        </mxCell>
        <mxCell id="5wcGb58u3SQSDJ49Bvyi-23" value="" style="endArrow=classic;html=1;rounded=0;strokeWidth=3;exitX=0.5;exitY=0;exitDx=0;exitDy=0;" parent="1" source="5wcGb58u3SQSDJ49Bvyi-1" edge="1">
          <mxGeometry width="50" height="50" relative="1" as="geometry">
            <mxPoint x="136" y="135" as="sourcePoint" />
            <mxPoint x="200" y="-288" as="targetPoint" />
          </mxGeometry>
        </mxCell>
        <mxCell id="5wcGb58u3SQSDJ49Bvyi-30" value="" style="edgeStyle=orthogonalEdgeStyle;rounded=0;orthogonalLoop=1;jettySize=auto;html=1;strokeWidth=3;" parent="1" source="5wcGb58u3SQSDJ49Bvyi-25" edge="1">
          <mxGeometry relative="1" as="geometry">
            <mxPoint x="1524" y="47.25" as="targetPoint" />
          </mxGeometry>
        </mxCell>
        <mxCell id="5wcGb58u3SQSDJ49Bvyi-25" value="&lt;font style=&quot;font-size: 24px;&quot;&gt;3x3 Box Filter&lt;/font&gt;" style="rounded=0;whiteSpace=wrap;html=1;" parent="1" vertex="1">
          <mxGeometry x="1281" y="-27.5" width="163" height="150" as="geometry" />
        </mxCell>
        <mxCell id="5wcGb58u3SQSDJ49Bvyi-29" value="" style="endArrow=classic;html=1;rounded=0;strokeWidth=3;exitX=0.872;exitY=0.996;exitDx=0;exitDy=0;exitPerimeter=0;" parent="1" source="5wcGb58u3SQSDJ49Bvyi-8" edge="1">
          <mxGeometry width="50" height="50" relative="1" as="geometry">
            <mxPoint x="1600" y="-290" as="sourcePoint" />
            <mxPoint x="1604.87" y="-27.5" as="targetPoint" />
          </mxGeometry>
        </mxCell>
        <mxCell id="5wcGb58u3SQSDJ49Bvyi-43" value="" style="shape=flexArrow;endArrow=classic;startArrow=classic;html=1;rounded=0;entryX=0;entryY=0.5;entryDx=0;entryDy=0;" parent="1" edge="1">
          <mxGeometry width="100" height="100" relative="1" as="geometry">
            <mxPoint x="70" y="124.23" as="sourcePoint" />
            <mxPoint x="160" y="125.48" as="targetPoint" />
          </mxGeometry>
        </mxCell>
        <mxCell id="5wcGb58u3SQSDJ49Bvyi-44" value="" style="shape=flexArrow;endArrow=classic;startArrow=classic;html=1;rounded=0;" parent="1" edge="1">
          <mxGeometry width="100" height="100" relative="1" as="geometry">
            <mxPoint x="70" y="435" as="sourcePoint" />
            <mxPoint x="165" y="435.0199999999999" as="targetPoint" />
            <Array as="points">
              <mxPoint x="125" y="435.0199999999999" />
            </Array>
          </mxGeometry>
        </mxCell>
        <mxCell id="5wcGb58u3SQSDJ49Bvyi-45" value="" style="shape=flexArrow;endArrow=classic;startArrow=classic;html=1;rounded=0;entryX=0;entryY=0.5;entryDx=0;entryDy=0;" parent="1" edge="1">
          <mxGeometry width="100" height="100" relative="1" as="geometry">
            <mxPoint x="1854" y="56.25" as="sourcePoint" />
            <mxPoint x="1944" y="57.25" as="targetPoint" />
          </mxGeometry>
        </mxCell>
        <mxCell id="5wcGb58u3SQSDJ49Bvyi-49" value="" style="shape=flexArrow;endArrow=classic;startArrow=classic;html=1;rounded=0;" parent="1" edge="1">
          <mxGeometry width="100" height="100" relative="1" as="geometry">
            <mxPoint x="1820" y="-322.5" as="sourcePoint" />
            <mxPoint x="1940" y="-320" as="targetPoint" />
          </mxGeometry>
        </mxCell>
        <mxCell id="82p9OovAjXmLQtIsP7t_-12" value="&lt;span style=&quot;font-size: 18px;&quot;&gt;Sigma-Delta&lt;/span&gt;&lt;div&gt;&lt;span style=&quot;font-size: 18px;&quot;&gt;Update&lt;/span&gt;&lt;/div&gt;" style="rounded=0;whiteSpace=wrap;html=1;" parent="1" vertex="1">
          <mxGeometry x="580" y="-260" width="120" height="230" as="geometry" />
        </mxCell>
        <mxCell id="82p9OovAjXmLQtIsP7t_-13" value="" style="endArrow=classic;startArrow=classic;html=1;rounded=0;exitX=1;exitY=0.75;exitDx=0;exitDy=0;entryX=0;entryY=0.5;entryDx=0;entryDy=0;strokeWidth=3;" parent="1" source="82p9OovAjXmLQtIsP7t_-12" target="5wcGb58u3SQSDJ49Bvyi-7" edge="1">
          <mxGeometry width="50" height="50" relative="1" as="geometry">
            <mxPoint x="696" y="60" as="sourcePoint" />
            <mxPoint x="731" y="60" as="targetPoint" />
          </mxGeometry>
        </mxCell>
        <mxCell id="82p9OovAjXmLQtIsP7t_-14" value="" style="endArrow=classic;startArrow=classic;html=1;rounded=0;exitX=1;exitY=0.25;exitDx=0;exitDy=0;entryX=0;entryY=0.5;entryDx=0;entryDy=0;strokeWidth=3;" parent="1" source="82p9OovAjXmLQtIsP7t_-12" target="5wcGb58u3SQSDJ49Bvyi-6" edge="1">
          <mxGeometry width="50" height="50" relative="1" as="geometry">
            <mxPoint x="706" y="120" as="sourcePoint" />
            <mxPoint x="741" y="120" as="targetPoint" />
          </mxGeometry>
        </mxCell>
        <mxCell id="82p9OovAjXmLQtIsP7t_-15" value="" style="edgeStyle=orthogonalEdgeStyle;rounded=0;orthogonalLoop=1;jettySize=auto;html=1;strokeWidth=3;" parent="1" edge="1">
          <mxGeometry relative="1" as="geometry">
            <mxPoint x="580" y="-144" as="targetPoint" />
            <mxPoint x="454" y="131" as="sourcePoint" />
            <Array as="points">
              <mxPoint x="454" y="-144" />
            </Array>
          </mxGeometry>
        </mxCell>
        <mxCell id="82p9OovAjXmLQtIsP7t_-16" value="" style="edgeStyle=orthogonalEdgeStyle;rounded=0;orthogonalLoop=1;jettySize=auto;html=1;strokeWidth=3;" parent="1" edge="1">
          <mxGeometry relative="1" as="geometry">
            <mxPoint x="920" y="-205" as="targetPoint" />
            <mxPoint x="858" y="-205" as="sourcePoint" />
          </mxGeometry>
        </mxCell>
        <mxCell id="82p9OovAjXmLQtIsP7t_-17" value="" style="edgeStyle=orthogonalEdgeStyle;rounded=0;orthogonalLoop=1;jettySize=auto;html=1;strokeWidth=3;" parent="1" edge="1">
          <mxGeometry relative="1" as="geometry">
            <mxPoint x="920" y="-90" as="targetPoint" />
            <mxPoint x="856" y="-90" as="sourcePoint" />
          </mxGeometry>
        </mxCell>
        <mxCell id="82p9OovAjXmLQtIsP7t_-18" value="&lt;font style=&quot;font-size: 24px;&quot;&gt;Motion Overlay&lt;/font&gt;" style="rounded=0;whiteSpace=wrap;html=1;" parent="1" vertex="1">
          <mxGeometry x="1524" y="-27.5" width="163" height="150" as="geometry" />
        </mxCell>
        <mxCell id="5wcGb58u3SQSDJ49Bvyi-28" value="&lt;font style=&quot;font-size: 18px;&quot;&gt;AXI STREAM&lt;/font&gt;&lt;div&gt;&lt;font size=&quot;3&quot;&gt;Interface&lt;/font&gt;&lt;/div&gt;&lt;div&gt;&lt;font size=&quot;3&quot;&gt;(Master)&lt;/font&gt;&lt;/div&gt;" style="rounded=0;whiteSpace=wrap;html=1;" parent="1" vertex="1">
          <mxGeometry x="1774" y="-21.250000000000114" width="80" height="143.75" as="geometry" />
        </mxCell>
        <mxCell id="82p9OovAjXmLQtIsP7t_-20" value="" style="edgeStyle=orthogonalEdgeStyle;rounded=0;orthogonalLoop=1;jettySize=auto;html=1;strokeWidth=3;" parent="1" edge="1">
          <mxGeometry relative="1" as="geometry">
            <mxPoint x="1688" y="57.25" as="sourcePoint" />
            <mxPoint x="1768" y="57.25" as="targetPoint" />
          </mxGeometry>
        </mxCell>
        <mxCell id="1Rf1SUsvrOOBmwsHc8l4-15" value="" style="swimlane;startSize=0;" parent="1" vertex="1">
          <mxGeometry x="122" y="-444.37" width="1768" height="990" as="geometry" />
        </mxCell>
        <mxCell id="1Rf1SUsvrOOBmwsHc8l4-16" value="&lt;font style=&quot;font-size: 36px;&quot;&gt;&lt;b&gt;Digital Video Motion Detector&lt;/b&gt;&lt;/font&gt;" style="text;html=1;align=center;verticalAlign=middle;whiteSpace=wrap;rounded=0;" parent="1Rf1SUsvrOOBmwsHc8l4-15" vertex="1">
          <mxGeometry x="660" y="40" width="530" height="30" as="geometry" />
        </mxCell>
        <mxCell id="1Rf1SUsvrOOBmwsHc8l4-17" value="&lt;font style=&quot;font-size: 18px;&quot;&gt;AXI LITE&lt;/font&gt;&lt;div&gt;&lt;font size=&quot;3&quot;&gt;Interface&lt;/font&gt;&lt;/div&gt;&lt;div&gt;&lt;font size=&quot;3&quot;&gt;(Slave)&lt;/font&gt;&lt;/div&gt;" style="whiteSpace=wrap;html=1;" parent="1" vertex="1">
          <mxGeometry x="165" y="370" width="75" height="131" as="geometry" />
        </mxCell>
        <mxCell id="1Rf1SUsvrOOBmwsHc8l4-18" value="&lt;font style=&quot;font-size: 24px;&quot;&gt;Control&lt;/font&gt;" style="rounded=0;whiteSpace=wrap;html=1;" parent="1" vertex="1">
          <mxGeometry x="280" y="405.5" width="1570" height="60" as="geometry" />
        </mxCell>
        <mxCell id="1Rf1SUsvrOOBmwsHc8l4-19" value="" style="endArrow=classic;startArrow=classic;html=1;rounded=0;exitX=1;exitY=0.5;exitDx=0;exitDy=0;entryX=0;entryY=0.5;entryDx=0;entryDy=0;strokeWidth=3;" parent="1" source="1Rf1SUsvrOOBmwsHc8l4-17" target="1Rf1SUsvrOOBmwsHc8l4-18" edge="1">
          <mxGeometry width="50" height="50" relative="1" as="geometry">
            <mxPoint x="354" y="125.5" as="sourcePoint" />
            <mxPoint x="404" y="75.5" as="targetPoint" />
          </mxGeometry>
        </mxCell>
        <mxCell id="NFXl4zrB0YOdTl866a_t-1" value="" style="edgeStyle=orthogonalEdgeStyle;rounded=0;orthogonalLoop=1;jettySize=auto;html=1;strokeWidth=3;" parent="1" edge="1">
          <mxGeometry relative="1" as="geometry">
            <mxPoint x="1220" y="49.5" as="sourcePoint" />
            <mxPoint x="1280" y="49.5" as="targetPoint" />
          </mxGeometry>
        </mxCell>
        <mxCell id="NFXl4zrB0YOdTl866a_t-2" value="&lt;span style=&quot;font-size: 18px;&quot;&gt;Motion&lt;/span&gt;&lt;div&gt;&lt;span style=&quot;font-size: 18px;&quot;&gt;Map Buffer&lt;/span&gt;&lt;/div&gt;" style="rounded=0;whiteSpace=wrap;html=1;" parent="1" vertex="1">
          <mxGeometry x="1100" y="0.6200000000000045" width="120" height="100" as="geometry" />
        </mxCell>
        <mxCell id="YUo0tV-gyAyulcyTNa2H-2" value="" style="endArrow=classic;html=1;rounded=0;strokeWidth=3;" parent="1" edge="1">
          <mxGeometry width="50" height="50" relative="1" as="geometry">
            <mxPoint x="454" y="-142" as="sourcePoint" />
            <mxPoint x="454" y="-292" as="targetPoint" />
          </mxGeometry>
        </mxCell>
        <mxCell id="YUo0tV-gyAyulcyTNa2H-4" value="" style="edgeStyle=orthogonalEdgeStyle;rounded=0;orthogonalLoop=1;jettySize=auto;html=1;strokeWidth=3;" parent="1" edge="1">
          <mxGeometry relative="1" as="geometry">
            <mxPoint x="920" y="160.25" as="targetPoint" />
            <mxPoint x="840" y="160.3" as="sourcePoint" />
          </mxGeometry>
        </mxCell>
        <mxCell id="YUo0tV-gyAyulcyTNa2H-6" value="" style="edgeStyle=orthogonalEdgeStyle;rounded=0;orthogonalLoop=1;jettySize=auto;html=1;strokeWidth=3;entryX=1;entryY=0.5;entryDx=0;entryDy=0;" parent="1" edge="1">
          <mxGeometry relative="1" as="geometry">
            <mxPoint x="779.7" y="240" as="targetPoint" />
            <mxPoint x="780" y="400" as="sourcePoint" />
          </mxGeometry>
        </mxCell>
        <mxCell id="YUo0tV-gyAyulcyTNa2H-10" value="" style="endArrow=classic;html=1;rounded=0;strokeWidth=3;entryX=0.5;entryY=1;entryDx=0;entryDy=0;exitX=0.978;exitY=0.007;exitDx=0;exitDy=0;exitPerimeter=0;" parent="1" edge="1">
          <mxGeometry width="50" height="50" relative="1" as="geometry">
            <mxPoint x="1604.67" y="405.5" as="sourcePoint" />
            <mxPoint x="1605.67" y="122.5" as="targetPoint" />
          </mxGeometry>
        </mxCell>
        <mxCell id="YUo0tV-gyAyulcyTNa2H-11" value="" style="endArrow=classic;html=1;rounded=0;strokeWidth=3;entryX=0.5;entryY=1;entryDx=0;entryDy=0;exitX=0.978;exitY=0.007;exitDx=0;exitDy=0;exitPerimeter=0;" parent="1" edge="1">
          <mxGeometry width="50" height="50" relative="1" as="geometry">
            <mxPoint x="1361.67" y="405.5" as="sourcePoint" />
            <mxPoint x="1362.67" y="122.5" as="targetPoint" />
          </mxGeometry>
        </mxCell>
        <mxCell id="YUo0tV-gyAyulcyTNa2H-13" value="" style="edgeStyle=orthogonalEdgeStyle;rounded=0;orthogonalLoop=1;jettySize=auto;html=1;strokeWidth=3;" parent="1" edge="1">
          <mxGeometry relative="1" as="geometry">
            <mxPoint x="965.32" y="337.5" as="targetPoint" />
            <mxPoint x="965.2" y="407.5" as="sourcePoint" />
          </mxGeometry>
        </mxCell>
        <mxCell id="YUo0tV-gyAyulcyTNa2H-15" value="" style="endArrow=classic;startArrow=classic;html=1;rounded=0;exitX=0.5;exitY=1;exitDx=0;exitDy=0;strokeWidth=3;" parent="1" source="5wcGb58u3SQSDJ49Bvyi-28" edge="1">
          <mxGeometry width="50" height="50" relative="1" as="geometry">
            <mxPoint x="620" y="700" as="sourcePoint" />
            <mxPoint x="1814" y="401" as="targetPoint" />
          </mxGeometry>
        </mxCell>
        <mxCell id="YUo0tV-gyAyulcyTNa2H-16" value="" style="endArrow=classic;startArrow=classic;html=1;rounded=0;exitX=0.5;exitY=1;exitDx=0;exitDy=0;strokeWidth=3;entryX=0.057;entryY=0.076;entryDx=0;entryDy=0;entryPerimeter=0;" parent="1" edge="1">
          <mxGeometry width="50" height="50" relative="1" as="geometry">
            <mxPoint x="200" y="199.5" as="sourcePoint" />
            <mxPoint x="398.962" y="410.05999999999995" as="targetPoint" />
            <Array as="points">
              <mxPoint x="200" y="280" />
              <mxPoint x="400" y="280" />
            </Array>
          </mxGeometry>
        </mxCell>
        <mxCell id="KWNy_G2wFi_E8i1F_-4x-1" value="&lt;span style=&quot;font-size: 18px;&quot;&gt;Frame&lt;/span&gt;&lt;div&gt;&lt;span style=&quot;font-size: 18px;&quot;&gt;&amp;nbsp;Buffers&lt;/span&gt;&lt;/div&gt;" style="rounded=0;whiteSpace=wrap;html=1;" parent="1" vertex="1">
          <mxGeometry x="720" y="10" width="120" height="230" as="geometry" />
        </mxCell>
        <mxCell id="KWNy_G2wFi_E8i1F_-4x-2" value="" style="edgeStyle=orthogonalEdgeStyle;rounded=0;orthogonalLoop=1;jettySize=auto;html=1;strokeWidth=3;" parent="1" edge="1">
          <mxGeometry relative="1" as="geometry">
            <mxPoint x="920" y="100.61999999999999" as="targetPoint" />
            <mxPoint x="840" y="100.67" as="sourcePoint" />
          </mxGeometry>
        </mxCell>
        <mxCell id="Wih975mYUc9LBkL0XSU5-4" value="&lt;h3 class=&quot;&quot; data-end=&quot;190&quot; data-start=&quot;157&quot;&gt;&lt;strong data-end=&quot;190&quot; data-start=&quot;161&quot;&gt;&lt;font face=&quot;Times New Roman&quot; style=&quot;font-size: 36px;&quot;&gt;Step 1: Frame Acquisition&lt;/font&gt;&lt;/strong&gt;&lt;/h3&gt;&lt;h3 class=&quot;&quot; data-end=&quot;190&quot; data-start=&quot;157&quot;&gt;&lt;font face=&quot;Times New Roman&quot; style=&quot;font-size: 24px;&quot;&gt;&lt;span style=&quot;font-weight: normal;&quot; data-end=&quot;190&quot; data-start=&quot;161&quot;&gt;1&lt;/span&gt;&lt;strong style=&quot;&quot; data-end=&quot;190&quot; data-start=&quot;161&quot;&gt;.&amp;nbsp;&lt;/strong&gt;&lt;span style=&quot;background-color: transparent; color: light-dark(rgb(0, 0, 0), rgb(255, 255, 255)); font-weight: normal;&quot;&gt;Receive a 32-bit RGB pixel via the &lt;/span&gt;&lt;span style=&quot;background-color: transparent; color: light-dark(rgb(0, 0, 0), rgb(255, 255, 255)); font-weight: normal;&quot; data-end=&quot;248&quot; data-start=&quot;228&quot;&gt;AXI Stream Slave&lt;/span&gt;&lt;span style=&quot;background-color: transparent; color: light-dark(rgb(0, 0, 0), rgb(255, 255, 255)); font-weight: normal;&quot;&gt; interface.&lt;/span&gt;&lt;/font&gt;&lt;/h3&gt;&lt;h3 class=&quot;&quot; data-end=&quot;190&quot; data-start=&quot;157&quot;&gt;&lt;font style=&quot;font-size: 24px;&quot; face=&quot;Times New Roman&quot;&gt;&lt;span style=&quot;background-color: transparent; color: light-dark(rgb(0, 0, 0), rgb(255, 255, 255)); font-weight: normal;&quot;&gt;2.&amp;nbsp;&lt;/span&gt;&lt;span style=&quot;background-color: transparent; color: light-dark(rgb(0, 0, 0), rgb(255, 255, 255)); font-weight: normal;&quot;&gt;Store the pixel in external memory using the &lt;/span&gt;&lt;span style=&quot;background-color: transparent; color: light-dark(rgb(0, 0, 0), rgb(255, 255, 255)); font-weight: normal;&quot; data-end=&quot;330&quot; data-start=&quot;309&quot;&gt;AXI Memory Master&lt;/span&gt;&lt;span style=&quot;background-color: transparent; color: light-dark(rgb(0, 0, 0), rgb(255, 255, 255)); font-weight: normal;&quot;&gt; interface.&lt;/span&gt;&lt;/font&gt;&lt;/h3&gt;" style="text;html=1;whiteSpace=wrap;overflow=hidden;rounded=0;" vertex="1" parent="1">
          <mxGeometry x="34" y="560" width="450" height="360" as="geometry" />
        </mxCell>
        <mxCell id="Wih975mYUc9LBkL0XSU5-5" value="&lt;h3 class=&quot;&quot; data-end=&quot;377&quot; data-start=&quot;348&quot;&gt;&lt;strong data-end=&quot;377&quot; data-start=&quot;352&quot;&gt;&lt;font face=&quot;Times New Roman&quot; style=&quot;font-size: 36px;&quot;&gt;Step 2: Preprocessing&lt;/font&gt;&lt;/strong&gt;&lt;/h3&gt;&lt;h3 class=&quot;&quot; data-end=&quot;377&quot; data-start=&quot;348&quot;&gt;&lt;font face=&quot;Times New Roman&quot; style=&quot;font-size: 24px;&quot;&gt;&lt;span style=&quot;background-color: transparent; color: light-dark(rgb(0, 0, 0), rgb(255, 255, 255)); font-weight: normal;&quot;&gt;1.&amp;nbsp;&lt;/span&gt;&lt;span style=&quot;background-color: transparent; color: light-dark(rgb(0, 0, 0), rgb(255, 255, 255)); font-weight: normal;&quot;&gt;Convert the RGB pixel to an 8-bit grayscale value.&lt;/span&gt;&lt;/font&gt;&lt;/h3&gt;&lt;h3 class=&quot;&quot; data-end=&quot;377&quot; data-start=&quot;348&quot;&gt;&lt;font face=&quot;Times New Roman&quot; style=&quot;font-size: 24px;&quot;&gt;&lt;span style=&quot;background-color: transparent; color: light-dark(rgb(0, 0, 0), rgb(255, 255, 255)); font-weight: normal;&quot;&gt;2. Update the &lt;/span&gt;&lt;span style=&quot;font-weight: normal;&quot;&gt;&lt;span style=&quot;background-color: transparent; color: light-dark(rgb(0, 0, 0), rgb(255, 255, 255));&quot; data-end=&quot;472&quot; data-start=&quot;446&quot;&gt;Sigma-Delta background&lt;/span&gt;&lt;span style=&quot;background-color: transparent; color: light-dark(rgb(0, 0, 0), rgb(255, 255, 255));&quot;&gt; &lt;/span&gt;&lt;/span&gt;&lt;span style=&quot;background-color: transparent; color: light-dark(rgb(0, 0, 0), rgb(255, 255, 255)); font-weight: normal;&quot;&gt;and &lt;/span&gt;&lt;span style=&quot;background-color: transparent; color: light-dark(rgb(0, 0, 0), rgb(255, 255, 255)); font-weight: normal;&quot; data-end=&quot;489&quot; data-start=&quot;477&quot;&gt;variance&lt;/span&gt;&lt;span style=&quot;background-color: transparent; color: light-dark(rgb(0, 0, 0), rgb(255, 255, 255)); font-weight: normal;&quot;&gt; using the grayscale pixel.&lt;/span&gt;&lt;/font&gt;&lt;/h3&gt;&lt;h3 class=&quot;&quot; data-end=&quot;377&quot; data-start=&quot;348&quot;&gt;&lt;font face=&quot;Times New Roman&quot; style=&quot;font-size: 24px;&quot;&gt;&lt;span style=&quot;background-color: transparent; color: light-dark(rgb(0, 0, 0), rgb(255, 255, 255)); font-weight: normal;&quot;&gt;3. Store the grayscale pixel into &lt;/span&gt;&lt;span style=&quot;background-color: transparent; color: light-dark(rgb(0, 0, 0), rgb(255, 255, 255)); font-weight: normal;&quot; data-end=&quot;569&quot; data-start=&quot;552&quot;&gt;frame buffers&lt;/span&gt;&lt;span style=&quot;background-color: transparent; color: light-dark(rgb(0, 0, 0), rgb(255, 255, 255)); font-weight: normal;&quot;&gt; using round-robin rotation.&lt;/span&gt;&lt;/font&gt;&lt;/h3&gt;&lt;h3 class=&quot;&quot; data-end=&quot;377&quot; data-start=&quot;348&quot;&gt;&lt;font face=&quot;Times New Roman&quot; style=&quot;font-size: 24px;&quot;&gt;&lt;span style=&quot;background-color: transparent; color: light-dark(rgb(0, 0, 0), rgb(255, 255, 255)); font-weight: normal;&quot;&gt;4. Provide the latest two frames to the &lt;/span&gt;&lt;span style=&quot;background-color: transparent; color: light-dark(rgb(0, 0, 0), rgb(255, 255, 255)); font-weight: normal;&quot; data-end=&quot;659&quot; data-start=&quot;639&quot;&gt;Motion Detection&lt;/span&gt;&lt;span style=&quot;background-color: transparent; color: light-dark(rgb(0, 0, 0), rgb(255, 255, 255)); font-weight: normal;&quot;&gt; block.&lt;/span&gt;&lt;/font&gt;&lt;/h3&gt;" style="text;html=1;whiteSpace=wrap;overflow=hidden;rounded=0;" vertex="1" parent="1">
          <mxGeometry x="532" y="560" width="450" height="620" as="geometry" />
        </mxCell>
        <mxCell id="Wih975mYUc9LBkL0XSU5-8" value="" style="verticalLabelPosition=bottom;verticalAlign=top;html=1;strokeWidth=2;shape=mxgraph.arrows2.arrow;dy=0.6;dx=40;notch=0;" vertex="1" parent="1">
          <mxGeometry x="462" y="660" width="60" height="70" as="geometry" />
        </mxCell>
        <mxCell id="Wih975mYUc9LBkL0XSU5-10" value="&lt;h3 class=&quot;&quot; data-end=&quot;705&quot; data-start=&quot;673&quot;&gt;&lt;strong data-end=&quot;705&quot; data-start=&quot;677&quot;&gt;&lt;font face=&quot;Times New Roman&quot; style=&quot;font-size: 36px;&quot;&gt;Step 3: Motion Detection&lt;/font&gt;&lt;/strong&gt;&lt;/h3&gt;&lt;h3 class=&quot;&quot; data-end=&quot;705&quot; data-start=&quot;673&quot;&gt;&lt;font style=&quot;font-size: 24px;&quot; face=&quot;Times New Roman&quot;&gt;&lt;span style=&quot;background-color: transparent; color: light-dark(rgb(0, 0, 0), rgb(255, 255, 255));&quot;&gt;&lt;span style=&quot;font-weight: normal;&quot;&gt;1.&lt;/span&gt;&amp;nbsp;&lt;/span&gt;&lt;span style=&quot;background-color: transparent; color: light-dark(rgb(0, 0, 0), rgb(255, 255, 255)); font-weight: normal;&quot;&gt;Compare the current frame to the background and the previous frame.&lt;/span&gt;&lt;/font&gt;&lt;/h3&gt;&lt;h3 class=&quot;&quot; data-end=&quot;705&quot; data-start=&quot;673&quot;&gt;&lt;font style=&quot;font-size: 24px;&quot; face=&quot;Times New Roman&quot;&gt;&lt;span style=&quot;background-color: transparent; color: light-dark(rgb(0, 0, 0), rgb(255, 255, 255)); font-weight: normal;&quot;&gt;2. Generate a binary &lt;/span&gt;&lt;span style=&quot;background-color: transparent; color: light-dark(rgb(0, 0, 0), rgb(255, 255, 255)); font-weight: normal;&quot; data-end=&quot;812&quot; data-start=&quot;798&quot;&gt;motion map&lt;/span&gt;&lt;span style=&quot;background-color: transparent; color: light-dark(rgb(0, 0, 0), rgb(255, 255, 255)); font-weight: normal;&quot;&gt; identifying motion pixels.&lt;/span&gt;&lt;/font&gt;&lt;/h3&gt;&lt;h3 class=&quot;&quot; data-end=&quot;705&quot; data-start=&quot;673&quot;&gt;&lt;font style=&quot;font-size: 24px;&quot; face=&quot;Times New Roman&quot;&gt;&lt;span style=&quot;background-color: transparent; color: light-dark(rgb(0, 0, 0), rgb(255, 255, 255)); font-weight: normal;&quot;&gt;3. Apply a &lt;/span&gt;&lt;span style=&quot;background-color: transparent; color: light-dark(rgb(0, 0, 0), rgb(255, 255, 255)); font-weight: normal;&quot; data-end=&quot;870&quot; data-start=&quot;852&quot;&gt;3x3 Box Filter&lt;/span&gt;&lt;span style=&quot;background-color: transparent; color: light-dark(rgb(0, 0, 0), rgb(255, 255, 255)); font-weight: normal;&quot;&gt; to remove noise from the motion map.&lt;/span&gt;&lt;/font&gt;&lt;/h3&gt;&lt;h1 style=&quot;margin-top: 0px;&quot;&gt;&lt;ul data-end=&quot;907&quot; data-start=&quot;706&quot;&gt;&lt;br&gt;&lt;/ul&gt;&lt;/h1&gt;" style="text;html=1;whiteSpace=wrap;overflow=hidden;rounded=0;" vertex="1" parent="1">
          <mxGeometry x="1072" y="560" width="450" height="360" as="geometry" />
        </mxCell>
        <mxCell id="Wih975mYUc9LBkL0XSU5-11" value="&lt;h3 class=&quot;&quot; data-end=&quot;953&quot; data-start=&quot;914&quot;&gt;&lt;strong data-end=&quot;953&quot; data-start=&quot;918&quot;&gt;&lt;font face=&quot;Times New Roman&quot; style=&quot;font-size: 36px;&quot;&gt;Step 4: Motion Overlay &amp;amp; Output&lt;/font&gt;&lt;/strong&gt;&lt;/h3&gt;&lt;h3 class=&quot;&quot; data-end=&quot;953&quot; data-start=&quot;914&quot;&gt;&lt;font style=&quot;font-size: 24px;&quot; face=&quot;Times New Roman&quot;&gt;&lt;span style=&quot;background-color: transparent; color: light-dark(rgb(0, 0, 0), rgb(255, 255, 255));&quot;&gt;&lt;span style=&quot;font-weight: normal;&quot;&gt;1.&lt;/span&gt;&amp;nbsp;&lt;/span&gt;&lt;span style=&quot;background-color: transparent; color: light-dark(rgb(0, 0, 0), rgb(255, 255, 255)); font-weight: normal;&quot;&gt;For each pixel, read the corresponding RGB value from memory.&lt;/span&gt;&lt;/font&gt;&lt;/h3&gt;&lt;h3 class=&quot;&quot; data-end=&quot;953&quot; data-start=&quot;914&quot;&gt;&lt;font style=&quot;font-size: 24px;&quot; face=&quot;Times New Roman&quot;&gt;&lt;span style=&quot;background-color: transparent; color: light-dark(rgb(0, 0, 0), rgb(255, 255, 255)); font-weight: normal;&quot;&gt;2. Overlay &lt;/span&gt;&lt;span style=&quot;font-weight: normal;&quot;&gt;&lt;span style=&quot;background-color: transparent; color: light-dark(rgb(0, 0, 0), rgb(255, 255, 255));&quot; data-end=&quot;1048&quot; data-start=&quot;1030&quot;&gt;bounding boxes&lt;/span&gt;&lt;span style=&quot;background-color: transparent; color: light-dark(rgb(0, 0, 0), rgb(255, 255, 255));&quot;&gt; &lt;/span&gt;&lt;/span&gt;&lt;span style=&quot;background-color: transparent; color: light-dark(rgb(0, 0, 0), rgb(255, 255, 255)); font-weight: normal;&quot;&gt;around detected motion regions based on the motion map.&lt;/span&gt;&lt;/font&gt;&lt;/h3&gt;&lt;h3 class=&quot;&quot; data-end=&quot;953&quot; data-start=&quot;914&quot;&gt;&lt;font style=&quot;font-size: 24px;&quot; face=&quot;Times New Roman&quot;&gt;&lt;span style=&quot;background-color: transparent; color: light-dark(rgb(0, 0, 0), rgb(255, 255, 255)); font-weight: normal;&quot;&gt;3. Send the final pixel to the output via the &lt;/span&gt;&lt;span style=&quot;background-color: transparent; color: light-dark(rgb(0, 0, 0), rgb(255, 255, 255)); font-weight: normal;&quot; data-end=&quot;1173&quot; data-start=&quot;1152&quot;&gt;AXI Stream Master&lt;/span&gt;&lt;span style=&quot;background-color: transparent; color: light-dark(rgb(0, 0, 0), rgb(255, 255, 255)); font-weight: normal;&quot;&gt; interface.&lt;/span&gt;&lt;/font&gt;&lt;/h3&gt;" style="text;html=1;whiteSpace=wrap;overflow=hidden;rounded=0;" vertex="1" parent="1">
          <mxGeometry x="1579" y="560" width="450" height="490" as="geometry" />
        </mxCell>
        <mxCell id="Wih975mYUc9LBkL0XSU5-12" value="" style="verticalLabelPosition=bottom;verticalAlign=top;html=1;strokeWidth=2;shape=mxgraph.arrows2.arrow;dy=0.6;dx=40;notch=0;" vertex="1" parent="1">
          <mxGeometry x="1002" y="660" width="60" height="70" as="geometry" />
        </mxCell>
        <mxCell id="Wih975mYUc9LBkL0XSU5-13" value="" style="verticalLabelPosition=bottom;verticalAlign=top;html=1;strokeWidth=2;shape=mxgraph.arrows2.arrow;dy=0.6;dx=40;notch=0;" vertex="1" parent="1">
          <mxGeometry x="1512" y="660" width="60" height="70" as="geometry" />
        </mxCell>
      </root>
    </mxGraphModel>
  </diagram>
</mxfile>
